<svg id="Layer_2" data-name="Layer 2" xmlns="http://www.w3.org/2000/svg" viewBox="0 0 152.91 641.38"><defs><style>.cls-1{fill:#e86138;stroke:#7c7440;stroke-miterlimit:10;stroke-width:9px;}</style></defs><path class="cls-1" d="M150.56,443.14c-.3-10.35-1.25-34.63-3.47-36.54-1.32-2.16,1-25.2,1.89-33.88.4-3.93.59-5.84.59-6.38,0-.39.07-1.78.18-3.8,1.21-22.92,1.09-32-.42-33.5-1.24-1.82-.8-20.8.24-37.81l-2.23-67.68c-1.54-16-4.45-46.73-4.45-48.23s1.46-17,2.22-25v-.1l-2.29-15.94-.35-.25c-11.3-8-23.41-17.24-24.08-18.57,0-1-1.28-5.54-3.37-12.8-1.47-5.11-3.31-11.48-3.31-12.32,0-1.94-2.13-40.9-2.22-42.56l-.08-.3C107.55,43.21,98.09,22,95.81,20.05,94.37,18.79,92.5,12.57,91.67,9L91.45,8,78.58,10.23,67.25,41.7l0,.19c0,.19-2.23,19.28-4.4,24.91-2.22,5.78-8.66,30-8.9,30.92C52,102.58,42.71,127,42.71,128.94s-2.2,49.72-2.22,50.1C35.22,210.33,27,257.66,26.14,259.76c-.19.31-19,36.83-19,38V458.63l6.68,56.84,4.48,64.14,13.58,11.78L63,624.24l20.57,13.92,20.82-2L134,614.44l0-.42c.1-1.34,2.23-32.92,2.23-36.77,0-3.06,8-28.75,11.09-38.39l0-.23c.88-25,2.44-63.11,3.11-65.17C151.48,471.59,150.79,449.78,150.56,443.14ZM42.71,179.22c.09-2,2.23-48.35,2.23-50.27.09-1.55,6.84-19.6,11.1-30.71.07-.25,6.69-25.14,8.88-30.83s4.29-23.56,4.49-25.23L80.31,11.9l9.4-1.63c.65,2.62,2.49,9.38,4.53,11.14,1.49,1.3,8.76,16.92,13,26.58.15,2.75,2.22,40.48,2.22,42.31,0,1,1.28,5.53,3.37,12.79,1.47,5.12,3.31,11.48,3.31,12.33,0,1.07,3.84,4.52,11.44,10.26.09,18,.25,63.43,0,65.18-.17.92.58,9.75,2.2,28.25.95,10.86,1.93,22.1,1.93,23.84,0,1.16-.41,4.69-.89,8.78-1.56,13.28-2,19.13-1.66,21.79a115,115,0,0,0-14.15-.62c-1.39,0-4.88,2-15.38,8.56-4.89,3.05-10,6.19-11.83,7-3,1.3-6.24,6.86-9.68,16.54l-.14.42c-.8,1.25-14.13,13.42-19.41,18-3.35,2.91-14.57,10.38-19.62,13.71l-9-85C33.37,234.41,40.24,193.89,42.71,179.22ZM9.31,297.9c.94-2.52,17.85-35.69,18.8-37.23a8,8,0,0,0,.39-1.32l8.11,76.39-.58.51v2.39c-.22,2.33-4.45,47.33-4.45,51.17s-4.46,23-6.62,28.68c-1.8,4.67-11.16,34.06-14.95,46l-.7-6Zm55.33,325L33.48,590.09,20.42,578.76,16,515.32,10.64,469.8c.95-3,14.3-45.17,16.43-50.7,2.26-5.9,6.73-25.33,6.73-29.29,0-2.91,2.61-31.31,3.84-44.45l.62,5.89.05.21c.2.54,20.06,54.18,22.27,59.91s11.07,42.2,11.07,48c0,5.17,3.6,36.68,6.39,41.88,2.41,4.5,2.75,52.84,2.61,56.32-.05,1.24,1.06,17,2.63,39C84.17,609.11,85,620.9,85,621.69c0,1.61-.65,11.46-.85,14.42Zm67.15-9.43-28.32,20.79L86.4,635.94c.22-3.28.83-12.62.83-14.25,0-.81-.65-10.09-1.73-25.18-1.19-16.76-2.68-37.62-2.63-38.86,0-.32,0-22.78-.79-39.57,1.74,3.12,4,7.17,5.27,9.36,1.49,2.58,21.2,24.7,25.25,25.63,1.91.89,12.37,13.19,21.38,24.48C133.9,582.13,132,609.77,131.79,613.5Zm2.62-38.81c-12.5-15.57-19.75-23.5-21.36-23.5h0c-2.45-.85-21.27-20.4-23.7-24.61-2.07-3.6-6.88-12.24-7.54-13.43-.41-6.35-1-11.26-1.75-12.71-2.48-4.63-6.17-35.19-6.17-41.06s-9-42.91-11.19-48.62S41.44,353.61,40.47,351l-1.23-11.56c4.31-2.83,17.18-11.34,20.95-14.62,1.31-1.13,19.32-17.15,19.91-18.67l.2-.55c4.42-12.45,7.45-14.9,8.55-15.38,2-.88,6.93-3.93,12.13-7.16,5.42-3.36,12.84-8,14.08-8.19,11.47,0,15.85.76,16.72,1.22.52,3.66,9.1,35.38,11,42.32-1.74,14.69-4.87,37.37-6.43,40.08-2.38,4.14-6.8,23.68-6.8,27.49,0,1.23-1.15,5.16-2.37,9.32-2.58,8.82-5.8,19.79-4.25,23.83a82.93,82.93,0,0,1,2.4,10.25c1.7,8.59,3.64,18.32,6.78,21,4.21,3.66,8.58,20.83,8.58,22.5,0,1.93,5,31.13,5.62,35-.51,12.14-.95,24.25-1.17,30.54C144.41,540.7,136.34,566,134.41,574.69Zm14-102.07c-.46.85-1.09,11.74-1.69,24.7-1.92-11.48-3.86-23.38-3.86-24.42,0-2.18-4.54-19.8-9.23-23.87-2.64-2.29-4.67-12.53-6.16-20A81.67,81.67,0,0,0,125,418.49c-1.35-3.5,2-15.08,4.29-22.74,1.36-4.66,2.44-8.33,2.44-9.8,0-3.6,4.34-22.76,6.56-26.62s6.23-37.14,6.68-40.92l0-.16-.05-.16c-4.38-16.13-10.92-40.7-11-42.29,0-.55,0-1.28-2.47-1.87-.76-2.17.74-15,1.56-22,.51-4.31.91-7.71.91-9,0-1.82-.94-12.58-1.94-24-1-11.89-2.34-26.69-2.22-27.81.3-1.6.09-51.45,0-63.8q4.65,3.46,10.87,7.88l2.16,15c-.18,1.87-2.22,23.19-2.22,25.1s4.27,46.49,4.45,48.34l2.23,67.55c-.68,11-2,36.82.24,39,1,1.41,1,12.24-.06,32.2-.11,2.07-.19,3.49-.19,3.89s-.25,3-.58,6.21c-2.53,25.07-2.87,34-1.36,35.29,1.29,1.67,2.47,19.46,2.93,35.35C148.71,453.74,149.06,471.05,148.44,472.62Z" transform="translate(-2.59 -2.84)"/></svg>