<svg id="Layer_2" data-name="Layer 2" xmlns="http://www.w3.org/2000/svg" viewBox="0 0 84.09 405.54"><defs><style>.cls-1{fill:#e86138;stroke:#7c7440;stroke-miterlimit:10;stroke-width:5px;}</style></defs><path class="cls-1" d="M83.94,277.52c-.17-6.55-.69-21.93-1.91-23.14-.72-1.36.56-15.95,1-21.45.22-2.49.32-3.7.32-4s0-1.14.1-2.41c.67-14.52.6-20.27-.23-21.21-.68-1.16-.44-13.17.13-23.94l-1.22-42.86c-.85-10.15-2.45-29.59-2.45-30.54s.8-10.78,1.22-15.85V92L79.69,81.93l-.19-.15C73.29,76.69,66.63,70.86,66.26,70a82.21,82.21,0,0,0-1.85-8.1c-.81-3.24-1.82-7.27-1.82-7.8,0-1.23-1.17-25.9-1.22-26.95l0-.19c-1-2.68-6.23-16.09-7.48-17.34-.8-.8-1.82-4.73-2.28-7L51.45,2,44.38,3.41,38.15,23.34l0,.12c0,.12-1.23,12.21-2.42,15.77s-4.76,19-4.9,19.58c-1,3.08-6.15,18.51-6.15,19.77s-1.21,31.48-1.21,31.72c-2.9,19.81-7.4,49.78-7.89,51.11-.1.2-10.47,23.32-10.47,24.07V287.33l3.67,36,2.46,40.61,7.47,7.46,17.13,20.8L47.12,401l11.45-1.27L74.81,386l0-.26c0-.85,1.22-20.85,1.22-23.28,0-1.94,4.4-18.21,6.1-24.31l0-.15c.48-15.86,1.34-40,1.71-41.26C84.44,295.54,84.07,281.72,83.94,277.52ZM24.66,110.41c.05-1.24,1.23-30.61,1.23-31.82.05-1,3.76-12.42,6.1-19.45,0-.16,3.68-15.92,4.88-19.52s2.36-14.92,2.47-16l6-19.17,5.17-1c.35,1.65,1.37,5.93,2.49,7.05.81.82,4.81,10.72,7.16,16.83.09,1.74,1.22,25.63,1.22,26.79a82.21,82.21,0,0,0,1.85,8.1C64,65.45,65,69.48,65,70s2.11,2.86,6.29,6.5c0,11.4.14,40.17,0,41.27-.1.59.31,6.17,1.2,17.89.53,6.88,1.07,14,1.07,15.1,0,.73-.23,3-.5,5.55-.85,8.41-1.1,12.12-.91,13.8a55.71,55.71,0,0,0-7.77-.39c-.76,0-2.68,1.29-8.45,5.42-2.69,1.93-5.48,3.92-6.51,4.43-1.64.82-3.43,4.35-5.32,10.47l-.07.27c-.44.79-7.77,8.5-10.67,11.4-1.84,1.84-8,6.58-10.78,8.68l-5-53.79C19.53,145.36,23.31,119.7,24.66,110.41ZM6.31,185.55C6.83,184,16.12,163,16.64,162a5.82,5.82,0,0,0,.21-.84l4.46,48.37-.32.32v1.51c-.12,1.48-2.44,30-2.44,32.4s-2.45,14.59-3.64,18.16c-1,3-6.13,21.57-8.21,29.13l-.39-3.78ZM36.72,391.36,19.59,370.57l-7.18-7.18L10,323.22,7,294.4c.52-1.89,7.86-28.6,9-32.1,1.24-3.74,3.7-16,3.7-18.55,0-1.84,1.44-19.82,2.11-28.14l.34,3.73,0,.13c.11.34,11,34.3,12.23,37.94s6.09,26.71,6.09,30.39c0,3.28,2,23.22,3.51,26.52,1.33,2.85,1.51,33.46,1.43,35.66,0,.78.59,10.74,1.45,24.73.49,7.9.95,15.36.95,15.87,0,1-.35,7.25-.46,9.12Zm36.9-6L58.06,398.55l-9.38,1.05c.12-2.08.46-8,.46-9,0-.52-.37-6.4-1-15.95C47.53,364,46.71,350.81,46.74,350c0-.2,0-14.42-.44-25,1,2,2.21,4.54,2.9,5.93.82,1.63,11.65,15.64,13.88,16.22,1,.57,6.79,8.36,11.75,15.5C74.78,365.53,73.76,383,73.62,385.38Zm1.44-24.56c-6.87-9.87-10.85-14.89-11.74-14.89h0c-1.35-.53-11.69-12.91-13-15.58-1.13-2.28-3.78-7.75-4.14-8.5-.23-4-.53-7.13-1-8.05-1.36-2.93-3.4-22.28-3.4-26S36.85,260.63,35.65,257,24,220.83,23.43,219.16l-.67-7.32c2.37-1.79,9.44-7.18,11.51-9.25.72-.72,10.62-10.86,10.94-11.83l.11-.35c2.44-7.88,4.1-9.43,4.7-9.73,1.11-.56,3.81-2.49,6.67-4.54s7.05-5,7.74-5.19c6.3,0,8.71.49,9.19.78.28,2.32,5,22.4,6,26.79-1,9.31-2.67,23.67-3.53,25.38-1.31,2.62-3.74,15-3.74,17.41a44.75,44.75,0,0,1-1.3,5.9c-1.42,5.58-3.19,12.53-2.34,15.09a56.58,56.58,0,0,1,1.32,6.49c.94,5.44,2,11.6,3.73,13.33,2.31,2.31,4.71,13.19,4.71,14.25,0,1.22,2.73,19.7,3.09,22.16-.28,7.69-.52,15.36-.64,19.34C80.56,339.29,76.13,355.3,75.06,360.82Zm7.71-64.63c-.25.53-.6,7.43-.93,15.64-1-7.27-2.12-14.81-2.12-15.46,0-1.39-2.49-12.55-5.07-15.12-1.45-1.45-2.57-7.93-3.38-12.67a58.11,58.11,0,0,0-1.37-6.67c-.74-2.21,1.13-9.55,2.36-14.4a41.27,41.27,0,0,0,1.35-6.2c0-2.28,2.38-14.42,3.6-16.86s3.43-23.51,3.67-25.9v-.11l0-.1c-2.41-10.21-6-25.77-6-26.77,0-.35,0-.82-1.35-1.19-.43-1.37.4-9.5.85-13.93.28-2.73.5-4.89.5-5.68,0-1.16-.52-8-1.07-15.19-.57-7.53-1.28-16.9-1.21-17.61.16-1,0-32.57,0-40.39q2.56,2.19,6,5l1.19,9.48c-.1,1.18-1.22,14.69-1.22,15.89s2.35,29.44,2.45,30.61l1.22,42.77c-.37,7-1.1,23.31.14,24.72.55.89.54,7.75,0,20.39-.06,1.31-.1,2.21-.1,2.47s-.14,1.9-.32,3.93c-1.39,15.87-1.58,21.52-.75,22.34.71,1.06,1.36,12.32,1.61,22.38C82.92,284.23,83.11,295.19,82.77,296.19Z" transform="translate(-2.59 0.94)"/></svg>