<svg id="Layer_2" data-name="Layer 2" xmlns="http://www.w3.org/2000/svg" viewBox="0 0 72 330"><path d="M67.44,227.1c-.13-5.36-.56-17.92-1.55-18.91-.6-1.12.45-13,.85-17.53.17-2,.26-3,.26-3.3s0-.93.08-2c.54-11.87.49-16.57-.19-17.34-.56-.94-.36-10.76.11-19.56l-1-35c-.69-8.3-2-24.19-2-25s.65-8.81,1-13v-.05l-1-8.25-.15-.13C58.74,63,53.3,58.19,53,57.5c0-.53-.58-2.86-1.51-6.62C50.82,48.23,50,44.94,50,44.5c0-1-1-21.17-1-22l0-.16c-.84-2.19-5.09-13.15-6.12-14.17C42.2,7.5,41.37,4.28,41,2.4l-.1-.49L35.11,3.07,30,19.35l0,.1c0,.1-1,10-2,12.89s-3.89,15.52-4,16c-.84,2.52-5,15.13-5,16.16s-1,25.73-1,25.93c-2.36,16.19-6,40.68-6.44,41.77-.09.16-8.56,19.06-8.56,19.67v83.24l3,29.42,2,33.19,6.1,6.1,14,17,9.24,7.2,9.36-1L60,315.74v-.21c0-.7,1-17,1-19,0-1.58,3.6-14.88,5-19.87l0-.11c.39-13,1.09-32.67,1.4-33.73S67.55,230.53,67.44,227.1ZM19,90.52c0-1,1-25,1-26,0-.81,3.07-10.15,5-15.9,0-.13,3-13,4-16s1.94-12.2,2-13.06l4.9-15.67,4.22-.84c.29,1.35,1.12,4.85,2,5.76.67.67,3.93,8.76,5.85,13.75.07,1.43,1,20.95,1,21.9,0,.53.58,2.86,1.51,6.62C51.18,53.77,52,57.06,52,57.5s1.73,2.34,5.14,5.31c0,9.32.11,32.83,0,33.73-.08.48.25,5,1,14.62.43,5.62.87,11.44.87,12.34,0,.6-.19,2.43-.4,4.54-.7,6.87-.9,9.9-.75,11.28A45.14,45.14,0,0,0,51.5,139c-.62,0-2.19,1.05-6.91,4.43-2.2,1.57-4.47,3.2-5.31,3.62-1.34.67-2.81,3.55-4.35,8.56l-.06.22c-.36.64-6.35,6.94-8.72,9.32-1.51,1.5-6.55,5.37-8.82,7.09l-4-44C14.81,119.08,17.89,98.11,19,90.52ZM4,151.93c.42-1.3,8-18.46,8.44-19.26a3.84,3.84,0,0,0,.18-.69l3.64,39.54-.26.26V173c-.1,1.21-2,24.49-2,26.48s-2,11.92-3,14.84c-.81,2.42-5,17.63-6.72,23.8L4,235.06ZM28.85,320.14l-14-17L9,297.28,7,264.45,4.59,240.89C5,239.35,11,217.52,12,214.66c1-3.06,3-13.11,3-15.16,0-1.51,1.17-16.2,1.72-23l.28,3.05,0,.1c.09.28,9,28,10,31s5,21.83,5,24.84c0,2.68,1.62,19,2.87,21.67C36,259.5,36.1,284.52,36,286.32c0,.64.48,8.78,1.18,20.21.4,6.46.78,12.56.78,13,0,.83-.29,5.93-.38,7.46ZM59,315.26,46.29,326l-7.66.85c.1-1.7.37-6.53.37-7.37,0-.42-.3-5.23-.78-13C37.69,297.79,37,287,37,286.35c0-.16,0-11.78-.36-20.47.79,1.61,1.81,3.71,2.37,4.84.67,1.34,9.53,12.79,11.34,13.26.86.46,5.56,6.83,9.61,12.67C60,299,59.13,313.33,59,315.26Zm1.18-20.08c-5.62-8.07-8.87-12.17-9.6-12.17h0c-1.1-.44-9.55-10.55-10.64-12.73-.93-1.86-3.1-6.34-3.39-6.95a28.66,28.66,0,0,0-.79-6.58C34.66,254.36,33,238.54,33,235.5s-4-22.2-5-25.16-9.54-29.58-10-30.94l-.55-6c1.94-1.47,7.72-5.87,9.41-7.57.59-.58,8.68-8.87,8.94-9.66l.09-.28c2-6.45,3.35-7.72,3.84-8,.91-.46,3.12-2,5.45-3.71s5.77-4.13,6.33-4.24c5.15,0,7.12.4,7.51.63.23,1.9,4.09,18.31,4.93,21.9-.78,7.61-2.19,19.34-2.89,20.75-1.07,2.14-3,12.25-3,14.22a36.91,36.91,0,0,1-1.07,4.83c-1.16,4.56-2.6,10.24-1.9,12.33A50.9,50.9,0,0,1,56.1,220c.77,4.45,1.64,9.48,3,10.89C61,232.75,63,241.63,63,242.5s2.23,16.11,2.52,18.12c-.22,6.28-.42,12.55-.52,15.8C64.68,277.59,61.06,290.67,60.19,295.18Zm6.3-52.83c-.21.44-.49,6.08-.76,12.79C64.87,249.2,64,243,64,242.5c0-1.13-2-10.25-4.15-12.35-1.18-1.19-2.1-6.49-2.76-10.36A45.2,45.2,0,0,0,56,214.34c-.6-1.81.92-7.8,1.93-11.77A32.87,32.87,0,0,0,59,197.5c0-1.86,2-11.78,3-13.78s2.8-19.22,3-21.17v-.08l0-.08C63,154,60,141.32,60,140.5c0-.28,0-.66-1.11-1-.34-1.12.33-7.76.7-11.39.23-2.23.41-4,.41-4.64,0-.94-.42-6.51-.87-12.41-.47-6.16-1.05-13.81-1-14.39.14-.83,0-26.63,0-33,1.39,1.2,3,2.55,4.88,4.08l1,7.75c-.08,1-1,12-1,13s1.92,24.06,2,25l1,35c-.3,5.69-.9,19.06.11,20.21.46.72.44,6.33,0,16.66,0,1.07-.08,1.8-.08,2s-.12,1.55-.26,3.21c-1.14,13-1.29,17.59-.61,18.26.58.87,1.11,10.07,1.31,18.3C66.61,232.58,66.77,241.54,66.49,242.35Z"/></svg>